# xmcd
#
# Track frame offsets: 
#        150
#        13116
#        26858
#        37704
#        47731
#        59021
#        69584
#        80568
#        91527
#        101938
#        115037
#        126302
#        137197
#        148154
#        159413
#        170649
#        183118
#        194574
#        207384
#        218947
#
# Disc length: 3086 seconds
#
# Revision: 2
# Processed by: cddbd v1.5.2PL0 Copyright (c) Steve Scherf et al.
# Submitted via: ExactAudioCopy v0.99pb4
#
DISCID=2a0c0c14
DTITLE=Willie Nelson - Love Songs
DYEAR=2002
DGENRE=Country
TTITLE0=Crazy
TTITLE1=Funny How Time Slips Away
TTITLE2=Hello Walls
TTITLE3=Touch Me
TTITLE4=I Hope So
TTITLE5=Where My House Lives
TTITLE6=Half A Man
TTITLE7=One Step Beyond
TTITLE8=The Part Where I Cry
TTITLE9=Three Days
TTITLE10=Opportunity To Cry
TTITLE11=Home Motel
TTITLE12=Lonley Little Mansion
TTITLE13=There's Gonna Be Love At My House Tonight
TTITLE14=You Took My Happy Away
TTITLE15=Mr. Record Man
TTITLE16=There Goes A Man
TTITLE17=How Long Is Forever
TTITLE18=Undo The Right
TTITLE19=Wake Me When It's Over
EXTD=Nelson, Willie - Love Songs
EXTT0=
EXTT1=
EXTT2=
EXTT3=
EXTT4=
EXTT5=
EXTT6=
EXTT7=
EXTT8=
EXTT9=
EXTT10=
EXTT11=
EXTT12=
EXTT13=
EXTT14=
EXTT15=
EXTT16=
EXTT17=
EXTT18=
EXTT19=
PLAYORDER=
